<svg width="2728" height="762" viewBox="0 0 2728 762" fill="none" xmlns="http://www.w3.org/2000/svg">
<path fill-rule="evenodd" clip-rule="evenodd" d="M322.607 204.95C373.187 183.856 429.86 183.856 480.441 204.95C481.269 201.887 482.926 199.174 485.266 196.864C488.92 193.348 493.305 191.641 498.324 191.943C580.97 196.512 655.33 245.026 694.703 320.006C718.532 365.356 724.33 419.443 717.412 470.016C712.538 505.221 701.33 540.225 684.032 571.01C681.449 575.58 677.21 578.543 672.531 579.598C667.219 581.406 661.178 580.602 656.402 576.886C640.809 564.732 626.093 551.625 612.352 537.714C613.082 576.234 609.183 614.854 600.802 652.469C600.704 652.82 600.607 653.172 600.559 653.474C587.743 700.128 548.175 733.123 501.979 737.242C438.826 770.087 364.221 770.087 301.068 737.242C254.874 733.174 215.354 700.128 202.538 653.474C202.44 653.172 202.343 652.82 202.246 652.469C193.864 614.854 189.966 576.234 190.745 537.714C176.955 551.625 162.288 564.732 146.645 576.886C141.87 580.602 135.828 581.406 130.517 579.598C125.838 578.543 121.598 575.58 119.016 571.01C101.717 540.225 90.5091 505.221 85.6364 470.016C78.717 419.443 84.5645 365.356 108.345 320.006C147.718 245.026 222.127 196.512 304.724 191.943C309.742 191.641 314.128 193.348 317.783 196.864C320.171 199.174 321.779 201.887 322.607 204.95ZM515.526 232.622C515.526 232.872 515.575 233.123 515.575 233.375C521.471 350.64 574.684 460.223 662.347 535.404C689.733 474.888 694.509 395.94 663.712 337.282C633.207 279.227 578.045 239.803 515.428 230.16C515.428 231.015 515.477 231.818 515.526 232.622ZM480.977 245.026C431.079 218.861 371.97 218.861 322.072 245.077C315.59 336.077 282.892 422.357 229.095 493.318C223.005 543.489 225.538 594.614 236.502 643.882C245.224 675.169 271.441 697.366 302.238 700.882C304.674 700.48 307.208 700.631 309.694 701.334C309.986 701.334 310.279 701.334 310.571 701.334C340.052 701.435 367.146 684.459 380.399 657.24C381.277 655.431 382.397 653.825 383.763 652.469C383.567 641.42 383.47 630.372 383.567 619.373C381.521 620.579 379.621 621.985 377.866 623.642C370.557 630.221 359.397 629.518 352.966 622.035C346.581 614.502 347.264 603.001 354.525 596.373C367.438 584.62 383.957 578.091 401.158 577.79C401.354 577.79 401.548 577.79 401.695 577.79C401.793 577.79 401.84 577.79 401.889 577.79C419.091 578.091 435.61 584.62 448.523 596.373C455.783 603.001 456.515 614.502 450.082 622.035C443.65 629.518 432.492 630.221 425.182 623.642C423.233 621.834 421.089 620.227 418.799 618.921C418.75 630.02 418.799 641.119 418.993 652.168C420.455 653.624 421.722 655.282 422.697 657.24C435.902 684.459 462.996 701.435 492.477 701.334C492.77 701.334 493.062 701.334 493.403 701.334C495.84 700.631 498.373 700.48 500.81 700.882C531.607 697.366 557.824 675.169 566.546 643.882C577.51 594.614 580.044 543.489 573.952 493.318C520.155 422.357 487.458 336.077 480.977 245.026ZM367.097 722.276C389.853 726.645 413.195 726.645 435.951 722.276C422.648 714.391 410.855 703.744 401.548 690.838C392.192 703.744 380.399 714.391 367.097 722.276ZM287.668 230.16C225.003 239.803 169.84 279.227 139.336 337.282C108.539 395.94 113.315 474.888 140.701 535.404C229.192 459.519 282.552 348.682 287.668 230.16ZM425.28 465.295C438.729 448.772 458.22 438.779 479.077 437.623C499.883 436.468 520.448 444.303 535.505 459.118C542.473 466.048 542.766 477.599 536.041 484.831C529.317 492.063 518.157 492.314 511.141 485.384C503.1 477.449 492.087 473.28 480.977 473.883C469.817 474.485 459.439 479.859 452.226 488.648C445.989 496.332 434.831 497.336 427.375 490.858C419.969 484.429 418.993 472.929 425.28 465.295ZM266.276 465.295C279.725 448.772 299.217 438.779 320.074 437.623C340.88 436.468 361.445 444.303 376.501 459.118C383.518 466.048 383.763 477.599 377.038 484.831C370.314 492.063 359.154 492.314 352.138 485.384C344.097 477.449 333.084 473.28 321.974 473.883C310.864 474.485 300.435 479.859 293.223 488.648C286.986 496.332 275.827 497.336 268.42 490.858C260.964 484.429 260.039 472.929 266.276 465.295Z" fill="#0F637A"/>
<path d="M63.3207 172.135L74.1526 184.5L56.0039 201.33L78.2109 226.68L101.039 205.506L111.87 217.871L75.8212 251.303L0 164.739L36.0593 131.307L46.8911 143.671L24.0525 164.845L45.173 188.96L63.3207 172.135Z" fill="#222222"/>
<path d="M103.596 80.9534C118.387 71.6974 131.371 76.0414 140.78 91.9724L142.637 95.1013L128.261 104.098L125.822 99.9734C121.616 92.8614 117.252 91.8904 112.413 94.9184C107.575 97.9464 106.41 102.381 110.616 109.493C122.721 129.976 154.712 115.213 171.528 143.661C180.948 159.592 178.587 173.542 163.658 182.885C148.729 192.232 135.606 187.97 126.188 172.039L122.573 165.922L136.95 156.925L141.156 164.037C145.363 171.15 149.914 171.805 154.752 168.777C159.59 165.749 161.121 161.284 156.915 154.172C144.799 133.689 112.818 148.452 95.9933 120.003C86.5832 104.072 88.8047 90.2094 103.596 80.9534Z" fill="#222222"/>
<path d="M226.14 23.8943L231.846 39.4643L214.439 46.2213L248.691 139.663L232.044 146.125L197.792 52.6823L180.394 59.4393L174.677 43.8633L226.14 23.8943Z" fill="#222222"/>
<path d="M308.181 3.84839C325.727 0.754391 336.016 9.2484 339.066 27.6384L348.733 85.7444C351.793 104.128 344.843 115.66 327.297 118.749L299.541 123.641L280.426 8.73538L308.181 3.84839ZM314.362 104.133L324.246 102.391C329.834 101.41 332.688 97.8654 331.325 89.6554L321.382 29.9034C320.02 21.6994 316.179 19.3324 310.59 20.3174L300.707 22.0604L314.362 104.133Z" fill="#222222"/>
<path d="M485.603 16.8223C479.995 15.9993 476.035 18.6104 474.9 26.8504L473.182 39.2103L456.525 36.7674L458.085 25.5604C460.643 7.10435 471.069 -2.12564 488.368 0.414358C505.657 2.94936 513.161 14.8113 510.604 33.2663C505.588 69.5183 468.64 77.8903 466.014 96.8383C465.905 97.6613 465.786 98.4844 465.836 99.3334L499.14 104.22L496.859 120.699L445.93 113.227L447.895 99.0534C452.605 65.1084 488.289 64.6314 492.9 31.3414C494.341 20.9634 491.201 17.6403 485.603 16.8223Z" fill="#222222"/>
<path d="M597.098 27.7194C613.596 33.6684 619.185 46.9784 613.183 64.5804L593.701 121.787C587.698 139.389 575.267 146.201 558.768 140.253C542.279 134.299 536.69 120.994 542.683 103.392L562.174 46.1804C568.167 28.5784 580.608 21.7704 597.098 27.7194ZM564.119 124.535C569.471 126.46 573.845 124.687 576.521 116.828L596.762 57.4224C599.438 49.5634 597.088 45.3674 591.746 43.4374C586.404 41.5114 582.02 43.2844 579.345 51.1434L559.114 110.549C556.437 118.408 558.777 122.604 564.119 124.535Z" fill="#222222"/>
<path d="M691.946 91.4894C687.068 88.5274 682.437 89.3914 678.33 96.5594L672.159 107.308L657.674 98.5104L663.263 88.7614C672.474 72.7034 685.538 68.2684 700.585 77.4074C715.633 86.5464 718.17 100.46 708.958 116.513C690.869 148.051 653.615 141.274 644.157 157.764C643.751 158.48 643.337 159.196 643.06 159.999L672.04 177.596L663.816 191.932L619.521 165.023L626.591 152.694C643.525 123.163 676.69 136.737 693.308 107.781C698.482 98.7484 696.823 94.4514 691.946 91.4894Z" fill="#222222"/>
<path d="M794.12 150.022L803.055 158.221L727.678 245.232L714.389 233.045L771.893 166.669L761.625 157.245L770.027 147.553C780.296 156.971 787 153.979 794.12 150.022Z" fill="#222222"/>
<path d="M1041.59 380.8C1041.59 388.933 1039.72 396.4 1035.99 403.2C1032.25 409.867 1026.52 415.267 1018.79 419.4C1011.05 423.533 1001.45 425.6 989.986 425.6H968.786V476H934.586V335.6H989.986C1001.19 335.6 1010.65 337.533 1018.39 341.4C1026.12 345.267 1031.92 350.6 1035.79 357.4C1039.65 364.2 1041.59 372 1041.59 380.8ZM987.386 398.4C993.92 398.4 998.786 396.867 1001.99 393.8C1005.19 390.733 1006.79 386.4 1006.79 380.8C1006.79 375.2 1005.19 370.867 1001.99 367.8C998.786 364.733 993.92 363.2 987.386 363.2H968.786V398.4H987.386Z" fill="black"/>
<path d="M1097.59 335.6V476H1063.39V335.6H1097.59Z" fill="black"/>
<path d="M1251.98 476H1217.78L1160.58 389.4V476H1126.38V335.6H1160.58L1217.78 422.6V335.6H1251.98V476Z" fill="black"/>
<path d="M1333.37 335.6C1348.17 335.6 1361.1 338.533 1372.17 344.4C1383.23 350.267 1391.77 358.533 1397.77 369.2C1403.9 379.733 1406.97 391.933 1406.97 405.8C1406.97 419.533 1403.9 431.733 1397.77 442.4C1391.77 453.067 1383.17 461.333 1371.97 467.2C1360.9 473.067 1348.03 476 1333.37 476H1280.77V335.6H1333.37ZM1331.17 446.4C1344.1 446.4 1354.17 442.867 1361.37 435.8C1368.57 428.733 1372.17 418.733 1372.17 405.8C1372.17 392.867 1368.57 382.8 1361.37 375.6C1354.17 368.4 1344.1 364.8 1331.17 364.8H1314.97V446.4H1331.17Z" fill="black"/>
<path d="M1496.48 477.4C1483.28 477.4 1471.15 474.333 1460.08 468.2C1449.15 462.067 1440.41 453.533 1433.88 442.6C1427.48 431.533 1424.28 419.133 1424.28 405.4C1424.28 391.667 1427.48 379.333 1433.88 368.4C1440.41 357.467 1449.15 348.933 1460.08 342.8C1471.15 336.667 1483.28 333.6 1496.48 333.6C1509.68 333.6 1521.75 336.667 1532.68 342.8C1543.75 348.933 1552.41 357.467 1558.68 368.4C1565.08 379.333 1568.28 391.667 1568.28 405.4C1568.28 419.133 1565.08 431.533 1558.68 442.6C1552.28 453.533 1543.61 462.067 1532.68 468.2C1521.75 474.333 1509.68 477.4 1496.48 477.4ZM1496.48 446.2C1507.68 446.2 1516.61 442.467 1523.28 435C1530.08 427.533 1533.48 417.667 1533.48 405.4C1533.48 393 1530.08 383.133 1523.28 375.8C1516.61 368.333 1507.68 364.6 1496.48 364.6C1485.15 364.6 1476.08 368.267 1469.28 375.6C1462.61 382.933 1459.28 392.867 1459.28 405.4C1459.28 417.8 1462.61 427.733 1469.28 435.2C1476.08 442.533 1485.15 446.2 1496.48 446.2Z" fill="black"/>
<path d="M1662.91 476L1633.71 423H1625.51V476H1591.31V335.6H1648.71C1659.77 335.6 1669.17 337.533 1676.91 341.4C1684.77 345.267 1690.64 350.6 1694.51 357.4C1698.37 364.067 1700.31 371.533 1700.31 379.8C1700.31 389.133 1697.64 397.467 1692.31 404.8C1687.11 412.133 1679.37 417.333 1669.11 420.4L1701.51 476H1662.91ZM1625.51 398.8H1646.71C1652.97 398.8 1657.64 397.267 1660.71 394.2C1663.91 391.133 1665.51 386.8 1665.51 381.2C1665.51 375.867 1663.91 371.667 1660.71 368.6C1657.64 365.533 1652.97 364 1646.71 364H1625.51V398.8Z" fill="black"/>
<path d="M1813.17 451.2H1760.77L1752.37 476H1716.57L1767.37 335.6H1806.97L1857.77 476H1821.57L1813.17 451.2ZM1804.37 424.8L1786.97 373.4L1769.77 424.8H1804.37Z" fill="black"/>
<path d="M2036.23 335.6V476H2002.03V391.8L1970.63 476H1943.03L1911.43 391.6V476H1877.23V335.6H1917.63L1957.03 432.8L1996.03 335.6H2036.23Z" fill="black"/>
<path d="M2152.23 451.2H2099.83L2091.43 476H2055.63L2106.43 335.6H2146.03L2196.83 476H2160.63L2152.23 451.2ZM2143.43 424.8L2126.03 373.4L2108.83 424.8H2143.43Z" fill="black"/>
<path d="M2369.67 380.8C2369.67 388.933 2367.81 396.4 2364.07 403.2C2360.34 409.867 2354.61 415.267 2346.87 419.4C2339.14 423.533 2329.54 425.6 2318.07 425.6H2296.87V476H2262.67V335.6H2318.07C2329.27 335.6 2338.74 337.533 2346.47 341.4C2354.21 345.267 2360.01 350.6 2363.87 357.4C2367.74 364.2 2369.67 372 2369.67 380.8ZM2315.47 398.4C2322.01 398.4 2326.87 396.867 2330.07 393.8C2333.27 390.733 2334.87 386.4 2334.87 380.8C2334.87 375.2 2333.27 370.867 2330.07 367.8C2326.87 364.733 2322.01 363.2 2315.47 363.2H2296.87V398.4H2315.47Z" fill="black"/>
<path d="M2425.68 363V391.4H2471.48V417.8H2425.68V448.6H2477.48V476H2391.48V335.6H2477.48V363H2425.68Z" fill="black"/>
<path d="M2604.68 335.6V363H2567.48V476H2533.28V363H2496.08V335.6H2604.68Z" fill="black"/>
<path d="M2676.64 477.4C2666.38 477.4 2657.18 475.733 2649.04 472.4C2640.91 469.067 2634.38 464.133 2629.44 457.6C2624.64 451.067 2622.11 443.2 2621.84 434H2658.24C2658.78 439.2 2660.58 443.2 2663.64 446C2666.71 448.667 2670.71 450 2675.64 450C2680.71 450 2684.71 448.867 2687.64 446.6C2690.58 444.2 2692.04 440.933 2692.04 436.8C2692.04 433.333 2690.84 430.467 2688.44 428.2C2686.18 425.933 2683.31 424.067 2679.84 422.6C2676.51 421.133 2671.71 419.467 2665.44 417.6C2656.38 414.8 2648.98 412 2643.24 409.2C2637.51 406.4 2632.58 402.267 2628.44 396.8C2624.31 391.333 2622.24 384.2 2622.24 375.4C2622.24 362.333 2626.98 352.133 2636.44 344.8C2645.91 337.333 2658.24 333.6 2673.44 333.6C2688.91 333.6 2701.38 337.333 2710.84 344.8C2720.31 352.133 2725.38 362.4 2726.04 375.6H2689.04C2688.78 371.067 2687.11 367.533 2684.04 365C2680.98 362.333 2677.04 361 2672.24 361C2668.11 361 2664.78 362.133 2662.24 364.4C2659.71 366.533 2658.44 369.667 2658.44 373.8C2658.44 378.333 2660.58 381.867 2664.84 384.4C2669.11 386.933 2675.78 389.667 2684.84 392.6C2693.91 395.667 2701.24 398.6 2706.84 401.4C2712.58 404.2 2717.51 408.267 2721.64 413.6C2725.78 418.933 2727.84 425.8 2727.84 434.2C2727.84 442.2 2725.78 449.467 2721.64 456C2717.64 462.533 2711.78 467.733 2704.04 471.6C2696.31 475.467 2687.18 477.4 2676.64 477.4Z" fill="black"/>
</svg>
